<?xml version="1.0" encoding="UTF-8"?>
<svg xmlns="http://www.w3.org/2000/svg" xmlns:xlink="http://www.w3.org/1999/xlink" width="32px" height="32px" viewBox="0 0 32 32" version="1.1">
<g id="surface1">
<path style=" stroke:none;fill-rule:nonzero;fill:rgb(50.588238%,35.686275%,79.607844%);fill-opacity:1;" d="M 21.761719 8.703125 C 23.542969 10.253906 24.878906 12.351562 25.078125 14.757812 C 25.113281 15.335938 25.125 15.933594 25.089844 16.511719 C 25.066406 16.53125 25.046875 16.554688 25.023438 16.574219 C 25.019531 16.707031 25.019531 16.835938 25.015625 16.964844 C 24.929688 18.796875 23.941406 20.464844 22.785156 21.824219 C 22.726562 21.894531 22.671875 21.964844 22.617188 22.035156 C 22.433594 22.242188 22.242188 22.433594 22.015625 22.59375 C 21.972656 22.59375 21.929688 22.59375 21.886719 22.59375 C 21.886719 22.632812 21.886719 22.675781 21.886719 22.71875 C 19.894531 24.332031 17.449219 25.046875 14.90625 24.785156 C 13.996094 24.675781 13.132812 24.421875 12.289062 24.0625 C 12.246094 24.046875 12.207031 24.027344 12.164062 24.011719 C 11.429688 23.691406 10.804688 23.242188 10.171875 22.75 C 10.085938 22.683594 9.996094 22.617188 9.902344 22.554688 C 9.847656 22.511719 9.847656 22.511719 9.792969 22.464844 C 9.792969 22.421875 9.792969 22.378906 9.792969 22.335938 C 9.75 22.335938 9.707031 22.335938 9.664062 22.335938 C 9.664062 22.292969 9.664062 22.25 9.664062 22.207031 C 9.621094 22.207031 9.578125 22.207031 9.535156 22.207031 C 9.535156 22.164062 9.535156 22.125 9.535156 22.078125 C 9.492188 22.078125 9.453125 22.078125 9.40625 22.078125 C 9.304688 21.96875 9.207031 21.855469 9.113281 21.734375 C 9.035156 21.640625 9.035156 21.640625 8.953125 21.542969 C 8.832031 21.375 8.832031 21.375 8.832031 21.246094 C 8.789062 21.246094 8.746094 21.246094 8.703125 21.246094 C 8.605469 21.109375 8.511719 20.972656 8.425781 20.828125 C 8.398438 20.789062 8.375 20.75 8.347656 20.710938 C 8.273438 20.589844 8.199219 20.472656 8.128906 20.351562 C 8.101562 20.3125 8.078125 20.269531 8.050781 20.230469 C 7.871094 19.925781 7.871094 19.925781 7.871094 19.710938 C 7.828125 19.710938 7.789062 19.710938 7.742188 19.710938 C 7.363281 18.808594 7.007812 17.835938 6.984375 16.84375 C 6.992188 16.707031 6.992188 16.707031 6.910156 16.640625 C 6.84375 15.652344 6.882812 14.660156 7.105469 13.695312 C 7.121094 13.617188 7.136719 13.535156 7.15625 13.453125 C 7.3125 12.792969 7.578125 12.191406 7.871094 11.585938 C 7.902344 11.519531 7.933594 11.457031 7.964844 11.390625 C 8.226562 10.875 8.582031 10.421875 8.9375 9.96875 C 9.015625 9.867188 9.089844 9.765625 9.167969 9.664062 C 9.203125 9.621094 9.242188 9.578125 9.28125 9.535156 C 9.320312 9.535156 9.363281 9.535156 9.40625 9.535156 C 9.40625 9.492188 9.40625 9.453125 9.40625 9.40625 C 9.449219 9.40625 9.492188 9.40625 9.535156 9.40625 C 9.535156 9.367188 9.535156 9.324219 9.535156 9.28125 C 9.855469 8.949219 10.242188 8.679688 10.617188 8.410156 C 10.691406 8.355469 10.691406 8.355469 10.769531 8.300781 C 11.71875 7.628906 12.695312 7.195312 13.824219 6.910156 C 13.894531 6.890625 13.894531 6.890625 13.96875 6.871094 C 16.636719 6.203125 19.660156 6.964844 21.761719 8.703125 Z M 13.886719 9.152344 C 13.886719 9.722656 13.886719 10.292969 13.886719 10.878906 C 13.613281 10.933594 13.378906 10.957031 13.101562 10.964844 C 13.058594 10.964844 13.015625 10.96875 12.96875 10.96875 C 12.832031 10.972656 12.695312 10.976562 12.554688 10.980469 C 12.460938 10.984375 12.367188 10.984375 12.273438 10.988281 C 12.042969 10.996094 11.8125 11 11.585938 11.007812 C 11.585938 11.386719 11.585938 11.769531 11.585938 12.160156 C 11.917969 12.183594 11.917969 12.183594 12.253906 12.203125 C 12.441406 12.21875 12.617188 12.246094 12.800781 12.289062 C 12.800781 12.332031 12.800781 12.371094 12.800781 12.414062 C 12.84375 12.414062 12.882812 12.414062 12.929688 12.414062 C 12.996094 12.699219 13.003906 12.976562 13.003906 13.265625 C 13.003906 13.316406 13.003906 13.371094 13.003906 13.425781 C 13.007812 13.597656 13.007812 13.769531 13.007812 13.945312 C 13.007812 14.003906 13.007812 14.0625 13.007812 14.125 C 13.007812 14.4375 13.011719 14.75 13.011719 15.0625 C 13.011719 15.386719 13.015625 15.710938 13.015625 16.03125 C 13.019531 16.28125 13.019531 16.53125 13.019531 16.78125 C 13.019531 16.898438 13.019531 17.019531 13.019531 17.136719 C 13.023438 17.304688 13.023438 17.472656 13.023438 17.636719 C 13.023438 17.6875 13.023438 17.734375 13.023438 17.785156 C 13.019531 18.117188 12.945312 18.304688 12.734375 18.558594 C 12.605469 18.617188 12.605469 18.617188 12.472656 18.625 C 12.425781 18.628906 12.375 18.632812 12.328125 18.640625 C 12.277344 18.640625 12.226562 18.644531 12.175781 18.648438 C 12.125 18.652344 12.074219 18.65625 12.023438 18.660156 C 11.898438 18.671875 11.773438 18.679688 11.648438 18.6875 C 11.625 18.792969 11.605469 18.902344 11.585938 19.007812 C 11.566406 19.097656 11.566406 19.097656 11.546875 19.1875 C 11.507812 19.441406 11.507812 19.441406 11.519531 19.902344 C 12.300781 19.925781 13.082031 19.945312 13.886719 19.96875 C 13.910156 20.601562 13.929688 21.234375 13.953125 21.886719 C 14.332031 21.886719 14.710938 21.886719 15.105469 21.886719 C 15.105469 21.253906 15.105469 20.621094 15.105469 19.96875 C 15.441406 19.96875 15.78125 19.96875 16.128906 19.96875 C 16.148438 20.601562 16.171875 21.234375 16.191406 21.886719 C 16.359375 21.890625 16.527344 21.890625 16.699219 21.890625 C 16.753906 21.894531 16.804688 21.894531 16.859375 21.894531 C 16.980469 21.894531 17.097656 21.890625 17.214844 21.886719 C 17.332031 21.769531 17.296875 21.582031 17.300781 21.425781 C 17.304688 21.34375 17.304688 21.265625 17.308594 21.179688 C 17.3125 21.09375 17.3125 21.011719 17.316406 20.925781 C 17.320312 20.839844 17.320312 20.75 17.324219 20.664062 C 17.332031 20.453125 17.335938 20.242188 17.34375 20.03125 C 17.554688 19.976562 17.75 19.960938 17.96875 19.953125 C 18.738281 19.894531 19.46875 19.683594 20.03125 19.136719 C 20.078125 19.09375 20.125 19.046875 20.175781 19.003906 C 20.300781 18.890625 20.300781 18.890625 20.289062 18.753906 C 20.332031 18.753906 20.371094 18.753906 20.414062 18.753906 C 20.792969 17.917969 20.933594 17.132812 20.609375 16.257812 C 20.378906 15.714844 19.910156 15.402344 19.382812 15.171875 C 19.324219 15.148438 19.261719 15.128906 19.199219 15.105469 C 19.199219 15.039062 19.199219 14.976562 19.199219 14.910156 C 19.242188 14.910156 19.285156 14.910156 19.328125 14.910156 C 19.328125 14.871094 19.328125 14.828125 19.328125 14.785156 C 19.363281 14.769531 19.398438 14.757812 19.4375 14.742188 C 19.738281 14.566406 19.933594 14.285156 20.03125 13.953125 C 20.164062 13.367188 20.136719 12.777344 19.851562 12.242188 C 19.371094 11.515625 18.621094 11.183594 17.792969 11.007812 C 17.621094 10.988281 17.453125 10.964844 17.28125 10.945312 C 17.28125 10.351562 17.28125 9.761719 17.28125 9.152344 C 16.921875 9.152344 16.5625 9.152344 16.191406 9.152344 C 16.191406 9.742188 16.191406 10.335938 16.191406 10.945312 C 15.941406 10.945312 15.941406 10.945312 15.683594 10.949219 C 15.632812 10.949219 15.578125 10.949219 15.523438 10.949219 C 15.40625 10.949219 15.285156 10.945312 15.167969 10.945312 C 15.050781 10.828125 15.089844 10.652344 15.082031 10.496094 C 15.082031 10.417969 15.078125 10.339844 15.074219 10.261719 C 15.074219 10.179688 15.070312 10.097656 15.066406 10.011719 C 15.066406 9.929688 15.0625 9.847656 15.058594 9.761719 C 15.054688 9.558594 15.046875 9.355469 15.039062 9.152344 C 14.660156 9.152344 14.28125 9.152344 13.886719 9.152344 Z M 9.214844 13.632812 C 9.214844 14.941406 9.214844 16.25 9.214844 17.601562 C 10.625 17.667969 10.625 17.667969 11.457031 17.40625 C 11.457031 17.367188 11.457031 17.324219 11.457031 17.28125 C 11.519531 17.28125 11.582031 17.28125 11.648438 17.28125 C 11.648438 17.238281 11.648438 17.195312 11.648438 17.152344 C 11.691406 17.152344 11.734375 17.152344 11.777344 17.152344 C 11.777344 17.109375 11.777344 17.066406 11.777344 17.023438 C 11.816406 17.023438 11.859375 17.023438 11.902344 17.023438 C 11.945312 16.957031 11.984375 16.890625 12.023438 16.824219 C 12.058594 16.769531 12.058594 16.769531 12.089844 16.710938 C 12.390625 16.125 12.390625 15.363281 12.222656 14.734375 C 12.0625 14.332031 12.0625 14.332031 11.777344 14.015625 C 11.734375 14.015625 11.691406 14.015625 11.648438 14.015625 C 11.648438 13.972656 11.648438 13.929688 11.648438 13.886719 C 10.945312 13.488281 10.945312 13.488281 9.214844 13.632812 Z M 9.214844 13.632812 "/>
<path style=" stroke:none;fill-rule:nonzero;fill:rgb(50.196081%,35.294119%,79.607844%);fill-opacity:1;" d="M 15.394531 15.925781 C 15.453125 15.925781 15.511719 15.925781 15.574219 15.925781 C 15.636719 15.925781 15.703125 15.925781 15.769531 15.929688 C 15.832031 15.929688 15.898438 15.929688 15.964844 15.929688 C 16.71875 15.933594 17.359375 15.976562 18.046875 16.320312 C 18.046875 16.363281 18.046875 16.40625 18.046875 16.449219 C 18.085938 16.457031 18.125 16.46875 18.164062 16.480469 C 18.382812 16.632812 18.445312 16.835938 18.496094 17.089844 C 18.523438 17.503906 18.433594 17.8125 18.164062 18.132812 C 17.570312 18.6875 16.753906 18.640625 16 18.632812 C 15.90625 18.632812 15.8125 18.628906 15.71875 18.628906 C 15.492188 18.628906 15.265625 18.625 15.039062 18.625 C 15.039062 18.25 15.039062 17.878906 15.035156 17.507812 C 15.035156 17.378906 15.035156 17.253906 15.035156 17.125 C 15.035156 16.945312 15.035156 16.761719 15.035156 16.582031 C 15.035156 16.523438 15.03125 16.464844 15.03125 16.40625 C 15.03125 16.273438 15.035156 16.136719 15.039062 16 C 15.144531 15.898438 15.25 15.925781 15.394531 15.925781 Z M 15.394531 15.925781 "/>
<path style=" stroke:none;fill-rule:nonzero;fill:rgb(50.196081%,35.294119%,79.607844%);fill-opacity:1;" d="M 15.039062 12.289062 C 15.300781 12.285156 15.5625 12.28125 15.832031 12.277344 C 15.914062 12.273438 15.992188 12.273438 16.078125 12.269531 C 16.691406 12.265625 17.234375 12.339844 17.726562 12.734375 C 17.980469 13.015625 18.007812 13.308594 18 13.675781 C 17.960938 14.007812 17.78125 14.238281 17.535156 14.453125 C 17.273438 14.640625 17.09375 14.734375 16.773438 14.757812 C 16.546875 14.773438 16.351562 14.804688 16.128906 14.847656 C 15.769531 14.828125 15.410156 14.804688 15.039062 14.785156 C 15.039062 13.960938 15.039062 13.136719 15.039062 12.289062 Z M 15.039062 12.289062 "/>
<path style=" stroke:none;fill-rule:nonzero;fill:rgb(92.54902%,92.54902%,94.509804%);fill-opacity:1;" d="M 6.015625 14.144531 C 6.058594 14.1875 6.101562 14.226562 6.144531 14.273438 C 6.140625 14.390625 6.140625 14.390625 6.121094 14.542969 C 5.992188 15.730469 6.066406 16.949219 6.335938 18.113281 C 6.347656 18.171875 6.363281 18.230469 6.375 18.292969 C 6.527344 18.953125 6.789062 19.5625 7.105469 20.160156 C 7.128906 20.210938 7.15625 20.265625 7.183594 20.320312 C 7.386719 20.707031 7.617188 21.0625 7.871094 21.417969 C 7.984375 21.574219 8.066406 21.703125 8.128906 21.886719 C 8.171875 21.886719 8.210938 21.886719 8.257812 21.886719 C 8.359375 22.003906 8.359375 22.003906 8.472656 22.160156 C 8.589844 22.320312 8.703125 22.464844 8.847656 22.601562 C 8.960938 22.71875 8.960938 22.71875 8.960938 22.847656 C 9.023438 22.867188 9.085938 22.890625 9.152344 22.910156 C 9.152344 22.953125 9.152344 22.996094 9.152344 23.039062 C 9.1875 23.054688 9.226562 23.074219 9.261719 23.089844 C 9.421875 23.175781 9.546875 23.277344 9.683594 23.390625 C 10.503906 24.054688 11.464844 24.710938 12.480469 25.023438 C 12.546875 25.042969 12.613281 25.066406 12.679688 25.085938 C 12.890625 25.152344 13.101562 25.214844 13.3125 25.28125 C 13.382812 25.300781 13.457031 25.324219 13.53125 25.347656 C 13.605469 25.367188 13.683594 25.386719 13.761719 25.40625 C 13.847656 25.429688 13.847656 25.429688 13.933594 25.453125 C 14.605469 25.617188 15.25 25.632812 15.9375 25.628906 C 15.992188 25.628906 16.050781 25.628906 16.109375 25.628906 C 17.183594 25.625 18.195312 25.546875 19.199219 25.152344 C 19.261719 25.128906 19.324219 25.109375 19.390625 25.085938 C 20.605469 24.648438 21.667969 23.972656 22.625 23.109375 C 22.71875 23.039062 22.71875 23.039062 22.847656 23.039062 C 22.867188 22.976562 22.890625 22.914062 22.910156 22.847656 C 22.984375 22.773438 23.054688 22.703125 23.125 22.632812 C 24.089844 21.679688 25.007812 20.347656 25.367188 19.027344 C 25.417969 18.847656 25.484375 18.675781 25.550781 18.5 C 25.679688 18.140625 25.753906 17.785156 25.796875 17.40625 C 25.855469 16.910156 25.855469 16.910156 25.890625 16.683594 C 25.929688 16.375 25.929688 16.074219 25.929688 15.765625 C 25.929688 15.703125 25.929688 15.640625 25.925781 15.574219 C 25.925781 15.136719 25.90625 14.707031 25.855469 14.273438 C 25.898438 14.25 25.941406 14.230469 25.984375 14.207031 C 26.0625 14.699219 26.066406 15.183594 26.066406 15.679688 C 26.066406 15.726562 26.070312 15.777344 26.070312 15.828125 C 26.070312 17.011719 25.960938 18.308594 25.433594 19.386719 C 25.339844 19.582031 25.261719 19.757812 25.214844 19.96875 C 25.171875 19.96875 25.132812 19.96875 25.089844 19.96875 C 25.082031 20.011719 25.074219 20.054688 25.070312 20.101562 C 25.011719 20.332031 24.914062 20.527344 24.804688 20.734375 C 24.78125 20.777344 24.757812 20.820312 24.738281 20.863281 C 24.492188 21.304688 24.191406 21.6875 23.871094 22.078125 C 23.820312 22.15625 23.820312 22.15625 23.765625 22.230469 C 23.738281 22.265625 23.710938 22.300781 23.679688 22.335938 C 23.636719 22.335938 23.59375 22.335938 23.550781 22.335938 C 23.53125 22.386719 23.53125 22.386719 23.511719 22.441406 C 23.394531 22.644531 23.238281 22.796875 23.070312 22.960938 C 23.039062 22.992188 23.007812 23.023438 22.976562 23.058594 C 22.734375 23.296875 22.734375 23.296875 22.59375 23.296875 C 22.59375 23.339844 22.59375 23.378906 22.59375 23.425781 C 22.476562 23.527344 22.363281 23.621094 22.238281 23.710938 C 22.183594 23.753906 22.183594 23.753906 22.128906 23.796875 C 21.835938 24.015625 21.535156 24.214844 21.226562 24.40625 C 21.1875 24.433594 21.144531 24.460938 21.101562 24.488281 C 19.5625 25.433594 17.820312 25.804688 16.03125 25.800781 C 15.953125 25.800781 15.875 25.800781 15.792969 25.800781 C 15.125 25.800781 14.484375 25.765625 13.832031 25.613281 C 13.78125 25.601562 13.734375 25.589844 13.683594 25.578125 C 12.941406 25.402344 12.265625 25.167969 11.585938 24.832031 C 11.523438 24.804688 11.464844 24.773438 11.40625 24.746094 C 11.09375 24.59375 10.792969 24.429688 10.496094 24.257812 C 10.496094 24.214844 10.496094 24.171875 10.496094 24.128906 C 10.441406 24.113281 10.386719 24.097656 10.328125 24.082031 C 10.085938 23.992188 9.933594 23.875 9.734375 23.710938 C 9.675781 23.660156 9.613281 23.609375 9.546875 23.558594 C 9.503906 23.515625 9.457031 23.46875 9.40625 23.425781 C 9.40625 23.382812 9.40625 23.339844 9.40625 23.296875 C 9.371094 23.28125 9.332031 23.265625 9.296875 23.246094 C 9.132812 23.15625 9.027344 23.058594 8.898438 22.925781 C 8.832031 22.855469 8.832031 22.855469 8.765625 22.785156 C 8.703125 22.722656 8.703125 22.722656 8.640625 22.65625 C 8.582031 22.601562 8.527344 22.546875 8.46875 22.488281 C 8 22.007812 8 22.007812 8 21.824219 C 7.957031 21.824219 7.914062 21.824219 7.871094 21.824219 C 7.757812 21.667969 7.648438 21.507812 7.542969 21.34375 C 7.511719 21.292969 7.480469 21.246094 7.449219 21.195312 C 6.53125 19.734375 5.9375 18.0625 5.945312 16.324219 C 5.945312 16.277344 5.945312 16.230469 5.941406 16.183594 C 5.941406 16.085938 5.945312 15.988281 5.945312 15.890625 C 5.945312 15.746094 5.945312 15.597656 5.941406 15.449219 C 5.941406 15.355469 5.945312 15.257812 5.945312 15.164062 C 5.945312 15.121094 5.941406 15.078125 5.941406 15.03125 C 5.945312 14.730469 5.972656 14.441406 6.015625 14.144531 Z M 6.015625 14.144531 "/>
<path style=" stroke:none;fill-rule:nonzero;fill:rgb(93.333334%,93.333334%,94.901961%);fill-opacity:1;" d="M 21.695312 7.359375 C 21.734375 7.382812 21.769531 7.40625 21.808594 7.429688 C 21.902344 7.488281 21.992188 7.550781 22.078125 7.617188 C 22.078125 7.660156 22.078125 7.699219 22.078125 7.742188 C 22.125 7.761719 22.171875 7.777344 22.21875 7.792969 C 22.417969 7.878906 22.5625 7.980469 22.71875 8.128906 C 22.71875 8.171875 22.71875 8.210938 22.71875 8.257812 C 22.773438 8.277344 22.773438 8.277344 22.828125 8.300781 C 23.292969 8.5625 23.71875 9.082031 24 9.535156 C 24 9.578125 24 9.621094 24 9.664062 C 24.042969 9.664062 24.085938 9.664062 24.128906 9.664062 C 24.222656 9.792969 24.308594 9.917969 24.390625 10.050781 C 24.429688 10.113281 24.429688 10.113281 24.46875 10.171875 C 24.742188 10.609375 24.984375 11.0625 25.214844 11.519531 C 25.242188 11.570312 25.265625 11.617188 25.292969 11.667969 C 25.640625 12.382812 25.960938 13.410156 25.921875 14.207031 C 25.773438 14.058594 25.769531 14.007812 25.734375 13.808594 C 25.457031 12.296875 24.804688 10.9375 23.871094 9.726562 C 23.804688 9.636719 23.804688 9.636719 23.734375 9.546875 C 22.859375 8.4375 21.785156 7.578125 20.542969 6.910156 C 20.503906 6.890625 20.460938 6.867188 20.417969 6.84375 C 19.738281 6.476562 19.003906 6.257812 18.253906 6.09375 C 18.191406 6.078125 18.132812 6.066406 18.070312 6.050781 C 16.074219 5.636719 13.671875 5.765625 11.839844 6.71875 C 11.730469 6.769531 11.730469 6.769531 11.621094 6.824219 C 11.152344 7.046875 10.722656 7.300781 10.304688 7.617188 C 10.238281 7.664062 10.175781 7.707031 10.109375 7.757812 C 9.738281 8.027344 9.398438 8.304688 9.089844 8.640625 C 8.984375 8.75 8.878906 8.855469 8.769531 8.960938 C 8.726562 8.960938 8.683594 8.960938 8.640625 8.960938 C 8.621094 8.996094 8.605469 9.035156 8.589844 9.074219 C 8.511719 9.21875 8.429688 9.3125 8.320312 9.429688 C 7.164062 10.726562 6.441406 12.449219 6.144531 14.144531 C 6.121094 14.144531 6.101562 14.144531 6.078125 14.144531 C 6.117188 13.277344 6.335938 12.484375 6.71875 11.710938 C 6.757812 11.628906 6.792969 11.546875 6.828125 11.464844 C 7.382812 10.210938 8.242188 9.03125 9.28125 8.128906 C 9.320312 8.128906 9.363281 8.128906 9.40625 8.128906 C 9.40625 8.085938 9.40625 8.042969 9.40625 8 C 9.566406 7.855469 9.75 7.734375 9.925781 7.609375 C 9.976562 7.570312 10.027344 7.535156 10.082031 7.496094 C 10.542969 7.171875 11.015625 6.902344 11.519531 6.65625 C 11.558594 6.636719 11.601562 6.613281 11.640625 6.59375 C 11.949219 6.433594 12.261719 6.3125 12.59375 6.207031 C 12.644531 6.191406 12.695312 6.175781 12.75 6.160156 C 15.820312 5.230469 18.972656 5.703125 21.695312 7.359375 Z M 21.695312 7.359375 "/>
<path style=" stroke:none;fill-rule:nonzero;fill:rgb(51.764709%,37.64706%,79.215688%);fill-opacity:1;" d="M 9.984375 14.335938 C 10.878906 14.335938 10.878906 14.335938 11.117188 14.4375 C 11.453125 14.792969 11.539062 15.242188 11.535156 15.714844 C 11.511719 15.976562 11.421875 16.207031 11.328125 16.449219 C 11.308594 16.511719 11.285156 16.574219 11.265625 16.640625 C 10.824219 16.988281 10.621094 16.894531 9.984375 16.894531 C 9.984375 16.050781 9.984375 15.207031 9.984375 14.335938 Z M 9.984375 14.335938 "/>
<path style=" stroke:none;fill-rule:nonzero;fill:rgb(69.411767%,60.000002%,82.745099%);fill-opacity:1;" d="M 15.039062 12.289062 C 15.082031 12.289062 15.125 12.289062 15.167969 12.289062 C 15.167969 13.070312 15.167969 13.851562 15.167969 14.65625 C 15.589844 14.636719 16.011719 14.613281 16.449219 14.59375 C 16.46875 14.550781 16.492188 14.507812 16.511719 14.464844 C 16.574219 14.464844 16.640625 14.464844 16.703125 14.464844 C 16.703125 14.527344 16.703125 14.589844 16.703125 14.65625 C 16.863281 14.625 16.863281 14.625 17.023438 14.59375 C 17.023438 14.550781 17.023438 14.507812 17.023438 14.464844 C 17.152344 14.433594 17.152344 14.433594 17.28125 14.398438 C 17.300781 14.464844 17.320312 14.527344 17.34375 14.59375 C 17.148438 14.703125 16.996094 14.738281 16.773438 14.757812 C 16.546875 14.773438 16.351562 14.804688 16.128906 14.847656 C 15.769531 14.828125 15.410156 14.804688 15.039062 14.785156 C 15.039062 13.960938 15.039062 13.136719 15.039062 12.289062 Z M 15.039062 12.289062 "/>
<path style=" stroke:none;fill-rule:nonzero;fill:rgb(68.627453%,60.784316%,83.137256%);fill-opacity:1;" d="M 15.242188 15.929688 C 15.300781 15.929688 15.359375 15.929688 15.417969 15.929688 C 15.480469 15.929688 15.542969 15.929688 15.609375 15.929688 C 15.675781 15.929688 15.742188 15.929688 15.8125 15.933594 C 15.914062 15.933594 15.914062 15.933594 16.015625 15.933594 C 16.179688 15.933594 16.347656 15.933594 16.511719 15.9375 C 16.511719 15.976562 16.511719 16.019531 16.511719 16.0625 C 16.070312 16.0625 15.625 16.0625 15.167969 16.0625 C 15.1875 16.886719 15.210938 17.710938 15.230469 18.558594 C 15.136719 18.589844 15.136719 18.589844 15.039062 18.625 C 15.039062 18.25 15.039062 17.878906 15.035156 17.507812 C 15.035156 17.378906 15.035156 17.253906 15.035156 17.125 C 15.035156 16.945312 15.035156 16.761719 15.035156 16.582031 C 15.035156 16.523438 15.03125 16.464844 15.03125 16.40625 C 15.03125 16.273438 15.035156 16.136719 15.039062 16 C 15.105469 15.9375 15.105469 15.9375 15.242188 15.929688 Z M 15.242188 15.929688 "/>
<path style=" stroke:none;fill-rule:nonzero;fill:rgb(74.901962%,69.01961%,87.450981%);fill-opacity:1;" d="M 15.46875 19.894531 C 15.542969 19.894531 15.542969 19.894531 15.617188 19.894531 C 15.664062 19.894531 15.710938 19.894531 15.761719 19.894531 C 16.121094 19.894531 16.121094 19.894531 16.191406 19.96875 C 16.199219 20.109375 16.199219 20.253906 16.199219 20.394531 C 16.199219 20.4375 16.199219 20.480469 16.199219 20.523438 C 16.199219 20.660156 16.195312 20.796875 16.195312 20.933594 C 16.195312 21.023438 16.195312 21.117188 16.195312 21.207031 C 16.195312 21.433594 16.191406 21.660156 16.191406 21.886719 C 16.171875 21.886719 16.148438 21.886719 16.128906 21.886719 C 16.105469 21.277344 16.085938 20.664062 16.0625 20.03125 C 15.769531 20.03125 15.472656 20.03125 15.167969 20.03125 C 15.167969 20.519531 15.167969 21.003906 15.167969 21.503906 C 15.050781 21.265625 15.023438 21.195312 15.023438 20.945312 C 15.023438 20.886719 15.027344 20.832031 15.027344 20.773438 C 15.027344 20.714844 15.027344 20.65625 15.027344 20.597656 C 15.027344 20.535156 15.027344 20.476562 15.027344 20.417969 C 15.03125 19.894531 15.03125 19.894531 15.46875 19.894531 Z M 15.46875 19.894531 "/>
<path style=" stroke:none;fill-rule:nonzero;fill:rgb(90.980393%,90.588236%,92.941177%);fill-opacity:1;" d="M 13.824219 5.953125 C 13.761719 6.078125 13.761719 6.078125 13.652344 6.117188 C 13.605469 6.128906 13.558594 6.140625 13.511719 6.152344 C 13.460938 6.164062 13.410156 6.175781 13.359375 6.1875 C 13.304688 6.203125 13.25 6.214844 13.191406 6.226562 C 12.710938 6.347656 12.28125 6.492188 11.839844 6.71875 C 11.722656 6.78125 11.605469 6.839844 11.484375 6.898438 C 11.371094 6.957031 11.253906 7.015625 11.140625 7.074219 C 10.984375 7.148438 10.855469 7.199219 10.6875 7.230469 C 10.6875 7.191406 10.6875 7.148438 10.6875 7.105469 C 12.871094 5.902344 12.871094 5.902344 13.824219 5.953125 Z M 13.824219 5.953125 "/>
<path style=" stroke:none;fill-rule:nonzero;fill:rgb(56.862748%,45.490196%,79.215688%);fill-opacity:1;" d="M 18.367188 17.089844 C 18.410156 17.089844 18.453125 17.089844 18.496094 17.089844 C 18.496094 17.519531 18.425781 17.796875 18.15625 18.136719 C 18.039062 18.246094 17.941406 18.308594 17.792969 18.367188 C 17.601562 18.34375 17.546875 18.316406 17.40625 18.175781 C 17.640625 18.089844 17.796875 18.046875 18.046875 18.046875 C 18.058594 18 18.066406 17.949219 18.074219 17.898438 C 18.113281 17.726562 18.113281 17.726562 18.175781 17.535156 C 18.21875 17.515625 18.261719 17.492188 18.304688 17.472656 C 18.347656 17.277344 18.347656 17.277344 18.367188 17.089844 Z M 18.367188 17.089844 "/>
<path style=" stroke:none;fill-rule:nonzero;fill:rgb(91.37255%,90.980393%,92.941177%);fill-opacity:1;" d="M 25.089844 11.519531 C 25.128906 11.519531 25.171875 11.519531 25.214844 11.519531 C 25.597656 12.28125 25.964844 13.347656 25.921875 14.207031 C 25.773438 14.058594 25.769531 14.007812 25.734375 13.808594 C 25.613281 13.140625 25.40625 12.507812 25.148438 11.882812 C 25.089844 11.710938 25.089844 11.710938 25.089844 11.519531 Z M 25.089844 11.519531 "/>
<path style=" stroke:none;fill-rule:nonzero;fill:rgb(62.7451%,54.901963%,80.784315%);fill-opacity:1;" d="M 10.945312 23.230469 C 11.121094 23.265625 11.285156 23.304688 11.457031 23.359375 C 11.457031 23.402344 11.457031 23.445312 11.457031 23.488281 C 11.527344 23.507812 11.601562 23.523438 11.675781 23.542969 C 11.75 23.566406 11.828125 23.589844 11.902344 23.617188 C 11.925781 23.660156 11.945312 23.699219 11.96875 23.742188 C 12.089844 23.773438 12.089844 23.773438 12.226562 23.785156 C 12.3125 23.792969 12.394531 23.800781 12.480469 23.808594 C 12.5 23.871094 12.523438 23.933594 12.542969 24 C 12.585938 24.019531 12.628906 24.042969 12.671875 24.0625 C 12.449219 24.136719 12.417969 24.128906 12.183594 24.035156 C 12.09375 23.988281 12.003906 23.941406 11.914062 23.894531 C 11.871094 23.875 11.828125 23.851562 11.78125 23.828125 C 11.484375 23.675781 11.210938 23.5 10.945312 23.296875 C 10.945312 23.273438 10.945312 23.253906 10.945312 23.230469 Z M 10.945312 23.230469 "/>
<path style=" stroke:none;fill-rule:nonzero;fill:rgb(63.529414%,55.29412%,81.568629%);fill-opacity:1;" d="M 17.152344 14.398438 C 17.214844 14.421875 17.277344 14.441406 17.34375 14.464844 C 17.34375 14.507812 17.34375 14.546875 17.34375 14.59375 C 17.148438 14.703125 16.996094 14.738281 16.773438 14.757812 C 16.609375 14.769531 16.457031 14.78125 16.296875 14.820312 C 16.078125 14.855469 15.878906 14.839844 15.660156 14.820312 C 15.578125 14.8125 15.5 14.808594 15.417969 14.800781 C 15.355469 14.792969 15.292969 14.789062 15.230469 14.785156 C 15.230469 14.761719 15.230469 14.742188 15.230469 14.71875 C 15.332031 14.714844 15.332031 14.714844 15.433594 14.707031 C 15.519531 14.703125 15.609375 14.699219 15.695312 14.691406 C 15.738281 14.691406 15.785156 14.6875 15.828125 14.683594 C 16.144531 14.667969 16.144531 14.667969 16.449219 14.59375 C 16.46875 14.550781 16.492188 14.507812 16.511719 14.464844 C 16.574219 14.464844 16.640625 14.464844 16.703125 14.464844 C 16.703125 14.527344 16.703125 14.589844 16.703125 14.65625 C 16.808594 14.636719 16.914062 14.613281 17.023438 14.59375 C 17.023438 14.550781 17.023438 14.507812 17.023438 14.464844 C 17.066406 14.441406 17.109375 14.421875 17.152344 14.398438 Z M 17.152344 14.398438 "/>
<path style=" stroke:none;fill-rule:nonzero;fill:rgb(91.764706%,91.37255%,93.333334%);fill-opacity:1;" d="M 11.777344 24.832031 C 12.09375 24.882812 12.390625 24.9375 12.683594 25.078125 C 12.988281 25.226562 13.304688 25.304688 13.632812 25.382812 C 13.742188 25.410156 13.847656 25.441406 13.953125 25.472656 C 13.984375 25.535156 13.984375 25.535156 14.015625 25.601562 C 13.667969 25.558594 13.339844 25.484375 13.003906 25.390625 C 12.953125 25.378906 12.902344 25.363281 12.851562 25.351562 C 12.46875 25.238281 12.121094 25.097656 11.777344 24.894531 C 11.777344 24.875 11.777344 24.855469 11.777344 24.832031 Z M 11.777344 24.832031 "/>
<path style=" stroke:none;fill-rule:nonzero;fill:rgb(64.705884%,56.862748%,80.784315%);fill-opacity:1;" d="M 11.390625 15.039062 C 11.574219 15.363281 11.570312 15.675781 11.480469 16.03125 C 11.433594 16.171875 11.382812 16.308594 11.328125 16.449219 C 11.308594 16.511719 11.285156 16.574219 11.265625 16.640625 C 11.222656 16.617188 11.179688 16.597656 11.136719 16.574219 C 11.15625 16.519531 11.175781 16.464844 11.195312 16.40625 C 11.289062 16.089844 11.292969 15.761719 11.3125 15.429688 C 11.328125 15.230469 11.328125 15.230469 11.390625 15.039062 Z M 11.390625 15.039062 "/>
<path style=" stroke:none;fill-rule:nonzero;fill:rgb(59.215689%,49.019608%,80.000001%);fill-opacity:1;" d="M 19.777344 14.335938 C 19.816406 14.421875 19.859375 14.503906 19.902344 14.59375 C 19.863281 14.59375 19.820312 14.59375 19.777344 14.59375 C 19.75 14.652344 19.75 14.652344 19.71875 14.714844 C 19.648438 14.847656 19.648438 14.847656 19.519531 14.910156 C 19.542969 15.019531 19.5625 15.125 19.585938 15.230469 C 19.519531 15.265625 19.519531 15.265625 19.457031 15.296875 C 19.324219 15.234375 19.199219 15.171875 19.070312 15.105469 C 19.113281 15.082031 19.15625 15.0625 19.199219 15.039062 C 19.199219 14.996094 19.199219 14.957031 19.199219 14.910156 C 19.242188 14.910156 19.285156 14.910156 19.328125 14.910156 C 19.328125 14.871094 19.328125 14.828125 19.328125 14.785156 C 19.453125 14.675781 19.582031 14.570312 19.710938 14.464844 C 19.734375 14.421875 19.753906 14.378906 19.777344 14.335938 Z M 19.777344 14.335938 "/>
<path style=" stroke:none;fill-rule:nonzero;fill:rgb(65.882355%,56.862748%,82.352942%);fill-opacity:1;" d="M 20.289062 23.550781 C 20.351562 23.574219 20.414062 23.59375 20.480469 23.617188 C 20.253906 23.804688 20.003906 23.925781 19.734375 24.046875 C 19.691406 24.070312 19.648438 24.089844 19.605469 24.113281 C 19.492188 24.164062 19.378906 24.210938 19.265625 24.257812 C 19.222656 24.234375 19.179688 24.214844 19.136719 24.191406 C 19.15625 24.148438 19.179688 24.109375 19.199219 24.0625 C 19.394531 24.023438 19.394531 24.023438 19.585938 24 C 19.585938 23.957031 19.585938 23.914062 19.585938 23.871094 C 19.773438 23.828125 19.964844 23.789062 20.160156 23.742188 C 20.160156 23.703125 20.160156 23.660156 20.160156 23.617188 C 20.203125 23.59375 20.246094 23.574219 20.289062 23.550781 Z M 20.289062 23.550781 "/>
<path style=" stroke:none;fill-rule:nonzero;fill:rgb(88.235295%,87.843138%,90.196079%);fill-opacity:1;" d="M 13.824219 5.953125 C 13.761719 6.078125 13.761719 6.078125 13.644531 6.121094 C 13.597656 6.136719 13.546875 6.148438 13.496094 6.160156 C 13.441406 6.175781 13.390625 6.1875 13.335938 6.203125 C 13.277344 6.214844 13.222656 6.230469 13.164062 6.242188 C 13.082031 6.265625 13.082031 6.265625 12.996094 6.285156 C 12.84375 6.324219 12.695312 6.363281 12.542969 6.398438 C 12.457031 6.421875 12.375 6.441406 12.289062 6.464844 C 12.289062 6.421875 12.289062 6.378906 12.289062 6.335938 C 12.441406 6.285156 12.597656 6.230469 12.753906 6.179688 C 12.796875 6.164062 12.839844 6.152344 12.882812 6.136719 C 13.210938 6.027344 13.480469 5.941406 13.824219 5.953125 Z M 13.824219 5.953125 "/>
<path style=" stroke:none;fill-rule:nonzero;fill:rgb(67.450982%,58.823532%,83.92157%);fill-opacity:1;" d="M 8.769531 10.175781 C 8.789062 10.238281 8.808594 10.300781 8.832031 10.367188 C 8.8125 10.410156 8.789062 10.453125 8.769531 10.496094 C 8.726562 10.496094 8.683594 10.496094 8.640625 10.496094 C 8.628906 10.542969 8.621094 10.589844 8.613281 10.640625 C 8.601562 10.699219 8.589844 10.757812 8.574219 10.816406 C 8.570312 10.863281 8.566406 10.910156 8.5625 10.957031 C 8.511719 11.070312 8.511719 11.070312 8.316406 11.152344 C 8.253906 11.167969 8.191406 11.183594 8.128906 11.199219 C 8.21875 10.933594 8.351562 10.734375 8.519531 10.507812 C 8.566406 10.445312 8.613281 10.382812 8.660156 10.320312 C 8.714844 10.25 8.714844 10.25 8.769531 10.175781 Z M 8.769531 10.175781 "/>
<path style=" stroke:none;fill-rule:nonzero;fill:rgb(64.313728%,54.901963%,81.568629%);fill-opacity:1;" d="M 24.894531 16.0625 C 24.960938 16.085938 25.023438 16.105469 25.089844 16.128906 C 25.089844 16.257812 25.089844 16.382812 25.089844 16.511719 C 25.066406 16.53125 25.046875 16.554688 25.023438 16.574219 C 25.007812 16.738281 24.996094 16.898438 24.988281 17.058594 C 24.984375 17.105469 24.984375 17.152344 24.980469 17.199219 C 24.972656 17.3125 24.964844 17.421875 24.960938 17.535156 C 24.9375 17.535156 24.917969 17.535156 24.894531 17.535156 C 24.894531 17.050781 24.894531 16.566406 24.894531 16.0625 Z M 24.894531 16.0625 "/>
<path style=" stroke:none;fill-rule:nonzero;fill:rgb(62.7451%,53.725493%,81.960785%);fill-opacity:1;" d="M 13.183594 24.128906 C 13.246094 24.148438 13.3125 24.171875 13.375 24.191406 C 13.375 24.234375 13.375 24.277344 13.375 24.320312 C 13.585938 24.339844 13.796875 24.363281 14.015625 24.382812 C 14.039062 24.449219 14.058594 24.511719 14.078125 24.574219 C 13.878906 24.675781 13.699219 24.578125 13.496094 24.515625 C 13.453125 24.503906 13.410156 24.492188 13.367188 24.476562 C 13.265625 24.445312 13.160156 24.414062 13.054688 24.382812 C 13.097656 24.300781 13.140625 24.214844 13.183594 24.128906 Z M 13.183594 24.128906 "/>
<path style=" stroke:none;fill-rule:nonzero;fill:rgb(63.921571%,53.725493%,81.176472%);fill-opacity:1;" d="M 18.367188 17.089844 C 18.410156 17.089844 18.453125 17.089844 18.496094 17.089844 C 18.46875 17.765625 18.46875 17.765625 18.175781 18.046875 C 18.125 17.835938 18.105469 17.746094 18.175781 17.535156 C 18.21875 17.515625 18.261719 17.492188 18.304688 17.472656 C 18.347656 17.277344 18.347656 17.277344 18.367188 17.089844 Z M 18.367188 17.089844 "/>
<path style=" stroke:none;fill-rule:nonzero;fill:rgb(64.705884%,56.862748%,80.784315%);fill-opacity:1;" d="M 18.625 19.902344 C 18.601562 19.945312 18.582031 19.988281 18.558594 20.03125 C 18.199219 20.03125 17.84375 20.03125 17.472656 20.03125 C 17.449219 20.117188 17.429688 20.199219 17.40625 20.289062 C 17.386719 20.183594 17.367188 20.078125 17.34375 19.96875 C 17.566406 19.902344 17.789062 19.882812 18.019531 19.863281 C 18.09375 19.859375 18.164062 19.851562 18.242188 19.84375 C 18.433594 19.839844 18.433594 19.839844 18.625 19.902344 Z M 18.625 19.902344 "/>
<path style=" stroke:none;fill-rule:nonzero;fill:rgb(66.666669%,58.039218%,85.09804%);fill-opacity:1;" d="M 7.617188 12.097656 C 7.660156 12.160156 7.699219 12.222656 7.742188 12.289062 C 7.714844 12.410156 7.714844 12.410156 7.65625 12.542969 C 7.582031 12.714844 7.550781 12.800781 7.550781 12.992188 C 7.457031 13.101562 7.457031 13.101562 7.359375 13.183594 C 7.273438 12.929688 7.359375 12.769531 7.453125 12.53125 C 7.476562 12.46875 7.476562 12.46875 7.5 12.40625 C 7.539062 12.300781 7.578125 12.199219 7.617188 12.097656 Z M 7.617188 12.097656 "/>
<path style=" stroke:none;fill-rule:nonzero;fill:rgb(51.764709%,40.000001%,74.509805%);fill-opacity:1;" d="M 11.136719 14.464844 C 11.15625 14.570312 11.179688 14.675781 11.199219 14.785156 C 11.074219 14.742188 10.945312 14.699219 10.816406 14.65625 C 10.816406 14.613281 10.816406 14.570312 10.816406 14.527344 C 10.625 14.507812 10.4375 14.484375 10.238281 14.464844 C 10.238281 14.441406 10.238281 14.421875 10.238281 14.398438 C 10.585938 14.339844 10.804688 14.324219 11.136719 14.464844 Z M 11.136719 14.464844 "/>
<path style=" stroke:none;fill-rule:nonzero;fill:rgb(65.490198%,53.725493%,82.352942%);fill-opacity:1;" d="M 17.664062 12.929688 C 17.75 12.949219 17.832031 12.96875 17.921875 12.992188 C 17.976562 13.183594 17.992188 13.351562 17.988281 13.550781 C 17.988281 13.601562 17.988281 13.65625 17.984375 13.707031 C 17.984375 13.765625 17.984375 13.765625 17.984375 13.824219 C 17.921875 13.855469 17.921875 13.855469 17.855469 13.886719 C 17.851562 13.839844 17.851562 13.792969 17.847656 13.742188 C 17.839844 13.679688 17.835938 13.617188 17.832031 13.550781 C 17.828125 13.488281 17.824219 13.425781 17.820312 13.363281 C 17.792969 13.191406 17.75 13.078125 17.664062 12.929688 Z M 17.664062 12.929688 "/>
<path style=" stroke:none;fill-rule:nonzero;fill:rgb(58.431375%,48.627451%,80.784315%);fill-opacity:1;" d="M 17.34375 21.886719 C 17.324219 21.929688 17.300781 21.972656 17.28125 22.015625 C 17.132812 22.019531 16.988281 22.023438 16.839844 22.023438 C 16.71875 22.027344 16.71875 22.027344 16.59375 22.027344 C 16.382812 22.015625 16.382812 22.015625 16.257812 21.886719 C 16.632812 21.816406 16.964844 21.839844 17.34375 21.886719 Z M 17.34375 21.886719 "/>
<path style=" stroke:none;fill-rule:nonzero;fill:rgb(62.7451%,52.156866%,82.352942%);fill-opacity:1;" d="M 20.609375 23.167969 C 20.777344 23.1875 20.945312 23.210938 21.121094 23.230469 C 20.914062 23.40625 20.734375 23.527344 20.480469 23.617188 C 20.523438 23.46875 20.566406 23.320312 20.609375 23.167969 Z M 20.609375 23.167969 "/>
<path style=" stroke:none;fill-rule:nonzero;fill:rgb(90.588236%,90.588236%,92.941177%);fill-opacity:1;" d="M 25.152344 19.648438 C 25.171875 19.648438 25.195312 19.648438 25.214844 19.648438 C 25.214844 19.753906 25.214844 19.859375 25.214844 19.96875 C 25.171875 19.96875 25.132812 19.96875 25.089844 19.96875 C 25.082031 20.011719 25.074219 20.058594 25.066406 20.105469 C 25.019531 20.3125 24.933594 20.484375 24.832031 20.671875 C 24.789062 20.671875 24.746094 20.671875 24.703125 20.671875 C 24.808594 20.308594 24.980469 19.984375 25.152344 19.648438 Z M 25.152344 19.648438 "/>
<path style=" stroke:none;fill-rule:nonzero;fill:rgb(56.470591%,46.666667%,78.039217%);fill-opacity:1;" d="M 13.824219 9.535156 C 13.867188 9.535156 13.910156 9.535156 13.953125 9.535156 C 13.953125 9.65625 13.953125 9.777344 13.957031 9.898438 C 13.957031 9.96875 13.957031 10.035156 13.957031 10.105469 C 13.953125 10.285156 13.929688 10.449219 13.886719 10.625 C 13.75 10.417969 13.742188 10.355469 13.746094 10.117188 C 13.75 10.0625 13.75 10.007812 13.75 9.949219 C 13.757812 9.804688 13.785156 9.675781 13.824219 9.535156 Z M 13.824219 9.535156 "/>
<path style=" stroke:none;fill-rule:nonzero;fill:rgb(61.56863%,51.764709%,82.745099%);fill-opacity:1;" d="M 24.191406 19.519531 C 24.191406 19.722656 24.15625 19.800781 24.0625 19.980469 C 24.039062 20.027344 24.015625 20.070312 23.992188 20.117188 C 23.964844 20.171875 23.964844 20.171875 23.9375 20.222656 C 23.914062 20.183594 23.894531 20.140625 23.871094 20.097656 C 23.828125 20.074219 23.789062 20.054688 23.742188 20.03125 C 23.785156 19.949219 23.828125 19.863281 23.871094 19.777344 C 23.933594 19.777344 24 19.777344 24.0625 19.777344 C 24.0625 19.710938 24.0625 19.648438 24.0625 19.585938 C 24.105469 19.5625 24.148438 19.542969 24.191406 19.519531 Z M 24.191406 19.519531 "/>
<path style=" stroke:none;fill-rule:nonzero;fill:rgb(60.392159%,49.803922%,80.784315%);fill-opacity:1;" d="M 7.9375 11.457031 C 8 11.710938 8 11.710938 8 11.839844 C 8.042969 11.859375 8.085938 11.882812 8.128906 11.902344 C 8.105469 11.945312 8.085938 11.988281 8.0625 12.03125 C 7.867188 12.070312 7.867188 12.070312 7.679688 12.097656 C 7.765625 11.886719 7.847656 11.671875 7.9375 11.457031 Z M 7.9375 11.457031 "/>
<path style=" stroke:none;fill-rule:nonzero;fill:rgb(58.039218%,46.666667%,79.215688%);fill-opacity:1;" d="M 7.230469 13.121094 C 7.273438 13.121094 7.316406 13.121094 7.359375 13.121094 C 7.402344 13.269531 7.445312 13.414062 7.488281 13.566406 C 7.359375 13.632812 7.359375 13.632812 7.230469 13.695312 C 7.160156 13.484375 7.179688 13.335938 7.230469 13.121094 Z M 7.230469 13.121094 "/>
<path style=" stroke:none;fill-rule:nonzero;fill:rgb(65.490198%,56.862748%,82.745099%);fill-opacity:1;" d="M 11.902344 7.679688 C 11.925781 7.722656 11.945312 7.765625 11.96875 7.808594 C 11.863281 7.808594 11.757812 7.808594 11.648438 7.808594 C 11.636719 7.847656 11.625 7.886719 11.617188 7.929688 C 11.460938 8.144531 11.265625 8.140625 11.007812 8.191406 C 11.253906 7.917969 11.535156 7.722656 11.902344 7.679688 Z M 11.902344 7.679688 "/>
<path style=" stroke:none;fill-rule:nonzero;fill:rgb(67.058825%,59.607846%,83.137256%);fill-opacity:1;" d="M 24.894531 14.398438 C 25.066406 14.570312 25.046875 14.679688 25.0625 14.921875 C 25.070312 14.988281 25.074219 15.058594 25.078125 15.132812 C 25.082031 15.1875 25.085938 15.242188 25.089844 15.296875 C 24.910156 15.09375 24.875 14.972656 24.882812 14.703125 C 24.886719 14.648438 24.886719 14.589844 24.890625 14.53125 C 24.890625 14.488281 24.894531 14.445312 24.894531 14.398438 Z M 24.894531 14.398438 "/>
<path style=" stroke:none;fill-rule:nonzero;fill:rgb(67.450982%,59.607846%,84.313726%);fill-opacity:1;" d="M 9.28125 9.535156 C 9.320312 9.558594 9.363281 9.578125 9.40625 9.601562 C 9.40625 9.792969 9.40625 9.792969 9.324219 9.894531 C 9.214844 9.984375 9.214844 9.984375 9.023438 10.046875 C 9.003906 10.089844 8.980469 10.132812 8.960938 10.175781 C 8.917969 10.15625 8.875 10.132812 8.832031 10.113281 C 8.980469 9.921875 9.128906 9.730469 9.28125 9.535156 Z M 9.28125 9.535156 "/>
<path style=" stroke:none;fill-rule:nonzero;fill:rgb(49.019608%,37.64706%,73.333335%);fill-opacity:1;" d="M 24.894531 15.230469 C 24.917969 15.296875 24.9375 15.359375 24.960938 15.425781 C 25.003906 15.425781 25.042969 15.425781 25.089844 15.425781 C 25.089844 15.59375 25.089844 15.761719 25.089844 15.9375 C 25.023438 15.9375 24.960938 15.9375 24.894531 15.9375 C 24.835938 15.742188 24.828125 15.6875 24.894531 15.488281 C 24.894531 15.402344 24.894531 15.320312 24.894531 15.230469 Z M 24.894531 15.230469 "/>
<path style=" stroke:none;fill-rule:nonzero;fill:rgb(64.705884%,56.470591%,81.176472%);fill-opacity:1;" d="M 19.777344 14.335938 C 19.816406 14.421875 19.859375 14.503906 19.902344 14.59375 C 19.863281 14.59375 19.820312 14.59375 19.777344 14.59375 C 19.761719 14.632812 19.746094 14.675781 19.730469 14.714844 C 19.648438 14.847656 19.648438 14.847656 19.480469 14.894531 C 19.429688 14.902344 19.378906 14.90625 19.328125 14.910156 C 19.328125 14.871094 19.328125 14.828125 19.328125 14.785156 C 19.453125 14.675781 19.582031 14.570312 19.710938 14.464844 C 19.734375 14.421875 19.753906 14.378906 19.777344 14.335938 Z M 19.777344 14.335938 "/>
<path style=" stroke:none;fill-rule:nonzero;fill:rgb(62.7451%,52.156866%,83.92157%);fill-opacity:1;" d="M 22.785156 21.375 C 22.867188 21.417969 22.953125 21.460938 23.039062 21.503906 C 22.933594 21.628906 22.828125 21.757812 22.71875 21.886719 C 22.679688 21.804688 22.636719 21.71875 22.59375 21.632812 C 22.632812 21.609375 22.675781 21.589844 22.71875 21.566406 C 22.742188 21.503906 22.761719 21.441406 22.785156 21.375 Z M 22.785156 21.375 "/>
<path style=" stroke:none;fill-rule:nonzero;fill:rgb(66.274512%,59.215689%,79.607844%);fill-opacity:1;" d="M 12.222656 12.160156 C 12.429688 12.183594 12.605469 12.222656 12.800781 12.289062 C 12.800781 12.332031 12.800781 12.371094 12.800781 12.414062 C 12.84375 12.414062 12.882812 12.414062 12.929688 12.414062 C 12.929688 12.457031 12.929688 12.5 12.929688 12.542969 C 12.863281 12.523438 12.800781 12.5 12.734375 12.480469 C 12.734375 12.4375 12.734375 12.394531 12.734375 12.351562 C 12.523438 12.332031 12.3125 12.308594 12.097656 12.289062 C 12.136719 12.246094 12.179688 12.203125 12.222656 12.160156 Z M 12.222656 12.160156 "/>
<path style=" stroke:none;fill-rule:nonzero;fill:rgb(65.490198%,55.686277%,84.313726%);fill-opacity:1;" d="M 23.617188 20.542969 C 23.617188 20.800781 23.503906 20.914062 23.359375 21.121094 C 23.304688 20.960938 23.289062 20.886719 23.34375 20.722656 C 23.425781 20.609375 23.425781 20.609375 23.617188 20.542969 Z M 23.617188 20.542969 "/>
<path style=" stroke:none;fill-rule:nonzero;fill:rgb(68.235296%,60.392159%,83.92157%);fill-opacity:1;" d="M 18.496094 7.039062 C 18.84375 7.136719 18.84375 7.136719 19.199219 7.230469 C 19.15625 7.273438 19.117188 7.316406 19.070312 7.359375 C 18.847656 7.351562 18.847656 7.351562 18.625 7.296875 C 18.582031 7.210938 18.539062 7.128906 18.496094 7.039062 Z M 18.496094 7.039062 "/>
<path style=" stroke:none;fill-rule:nonzero;fill:rgb(90.196079%,90.196079%,92.54902%);fill-opacity:1;" d="M 23.296875 22.59375 C 23.195312 22.835938 23.042969 22.992188 22.847656 23.167969 C 22.804688 23.167969 22.761719 23.167969 22.71875 23.167969 C 22.71875 23.125 22.71875 23.082031 22.71875 23.039062 C 22.761719 23.039062 22.804688 23.039062 22.847656 23.039062 C 22.867188 22.976562 22.890625 22.914062 22.910156 22.847656 C 23.140625 22.59375 23.140625 22.59375 23.296875 22.59375 Z M 23.296875 22.59375 "/>
<path style=" stroke:none;fill-rule:nonzero;fill:rgb(68.627453%,59.215689%,83.92157%);fill-opacity:1;" d="M 17.40625 10.945312 C 17.507812 10.941406 17.609375 10.9375 17.710938 10.9375 C 17.769531 10.933594 17.824219 10.933594 17.882812 10.929688 C 18.054688 10.945312 18.15625 10.984375 18.304688 11.070312 C 17.988281 11.175781 17.71875 11.089844 17.40625 11.007812 C 17.40625 10.988281 17.40625 10.964844 17.40625 10.945312 Z M 17.40625 10.945312 "/>
<path style=" stroke:none;fill-rule:nonzero;fill:rgb(65.882355%,56.470591%,83.137256%);fill-opacity:1;" d="M 10.945312 23.230469 C 11.121094 23.265625 11.285156 23.304688 11.457031 23.359375 C 11.5 23.492188 11.5 23.492188 11.519531 23.617188 C 11.269531 23.53125 11.121094 23.429688 10.945312 23.230469 Z M 10.945312 23.230469 "/>
<path style=" stroke:none;fill-rule:nonzero;fill:rgb(48.235294%,35.294119%,74.901962%);fill-opacity:1;" d="M 11.390625 19.390625 C 11.433594 19.390625 11.476562 19.390625 11.519531 19.390625 C 11.5 19.582031 11.476562 19.773438 11.457031 19.96875 C 11.394531 19.96875 11.328125 19.96875 11.265625 19.96875 C 11.265625 19.839844 11.265625 19.714844 11.265625 19.585938 C 11.304688 19.585938 11.347656 19.585938 11.390625 19.585938 C 11.390625 19.519531 11.390625 19.457031 11.390625 19.390625 Z M 11.390625 19.390625 "/>
<path style=" stroke:none;fill-rule:nonzero;fill:rgb(69.803923%,61.960787%,85.490197%);fill-opacity:1;" d="M 9.921875 8.960938 C 9.941406 9.003906 9.960938 9.042969 9.984375 9.089844 C 9.941406 9.089844 9.898438 9.089844 9.855469 9.089844 C 9.839844 9.136719 9.828125 9.1875 9.8125 9.238281 C 9.726562 9.40625 9.726562 9.40625 9.558594 9.492188 C 9.511719 9.507812 9.460938 9.519531 9.40625 9.535156 C 9.40625 9.492188 9.40625 9.453125 9.40625 9.40625 C 9.449219 9.40625 9.492188 9.40625 9.535156 9.40625 C 9.535156 9.367188 9.535156 9.324219 9.535156 9.28125 C 9.660156 9.171875 9.789062 9.0625 9.921875 8.960938 Z M 9.921875 8.960938 "/>
<path style=" stroke:none;fill-rule:nonzero;fill:rgb(64.705884%,56.470591%,81.568629%);fill-opacity:1;" d="M 21.824219 8.832031 C 22.03125 8.949219 22.136719 9.011719 22.273438 9.214844 C 22.25 9.257812 22.230469 9.300781 22.207031 9.34375 C 22.144531 9.324219 22.082031 9.300781 22.015625 9.28125 C 22.015625 9.195312 22.015625 9.109375 22.015625 9.023438 C 21.953125 9.003906 21.890625 8.980469 21.824219 8.960938 C 21.824219 8.917969 21.824219 8.875 21.824219 8.832031 Z M 21.824219 8.832031 "/>
<path style=" stroke:none;fill-rule:nonzero;fill:rgb(95.294118%,95.686275%,96.862745%);fill-opacity:1;" d="M 23.617188 22.078125 C 23.660156 22.121094 23.699219 22.164062 23.742188 22.207031 C 23.722656 22.25 23.703125 22.292969 23.679688 22.335938 C 23.636719 22.335938 23.59375 22.335938 23.550781 22.335938 C 23.507812 22.421875 23.46875 22.503906 23.425781 22.59375 C 23.359375 22.59375 23.296875 22.59375 23.230469 22.59375 C 23.359375 22.421875 23.484375 22.253906 23.617188 22.078125 Z M 23.617188 22.078125 "/>
<path style=" stroke:none;fill-rule:nonzero;fill:rgb(64.313728%,53.725493%,80.392158%);fill-opacity:1;" d="M 19.710938 19.457031 C 19.648438 19.648438 19.648438 19.648438 19.519531 19.710938 C 19.371094 19.714844 19.222656 19.714844 19.070312 19.710938 C 19.457031 19.457031 19.457031 19.457031 19.710938 19.457031 Z M 19.710938 19.457031 "/>
<path style=" stroke:none;fill-rule:nonzero;fill:rgb(67.058825%,59.215689%,84.313726%);fill-opacity:1;" d="M 17.472656 16.128906 C 17.6875 16.164062 17.859375 16.214844 18.046875 16.320312 C 18.027344 16.382812 18.003906 16.445312 17.984375 16.511719 C 17.984375 16.46875 17.984375 16.425781 17.984375 16.382812 C 17.855469 16.382812 17.730469 16.382812 17.601562 16.382812 C 17.601562 16.320312 17.601562 16.257812 17.601562 16.191406 C 17.558594 16.171875 17.515625 16.148438 17.472656 16.128906 Z M 17.472656 16.128906 "/>
<path style=" stroke:none;fill-rule:nonzero;fill:rgb(60.784316%,51.372552%,80.392158%);fill-opacity:1;" d="M 19.457031 11.457031 C 19.476562 11.539062 19.5 11.625 19.519531 11.710938 C 19.328125 11.710938 19.328125 11.710938 19.1875 11.585938 C 19.148438 11.542969 19.113281 11.5 19.070312 11.457031 C 19.230469 11.375 19.289062 11.40625 19.457031 11.457031 Z M 19.457031 11.457031 "/>
<path style=" stroke:none;fill-rule:nonzero;fill:rgb(65.882355%,56.470591%,81.960785%);fill-opacity:1;" d="M 18.496094 11.070312 C 18.730469 11.160156 18.730469 11.160156 18.945312 11.265625 C 18.945312 11.304688 18.945312 11.347656 18.945312 11.390625 C 18.734375 11.328125 18.523438 11.265625 18.304688 11.199219 C 18.367188 11.15625 18.429688 11.117188 18.496094 11.070312 Z M 18.496094 11.070312 "/>
<path style=" stroke:none;fill-rule:nonzero;fill:rgb(57.647061%,45.490196%,80.784315%);fill-opacity:1;" d="M 12.289062 23.808594 C 12.371094 23.828125 12.457031 23.851562 12.542969 23.871094 C 12.542969 23.914062 12.542969 23.957031 12.542969 24 C 12.585938 24.019531 12.628906 24.042969 12.671875 24.0625 C 12.433594 24.136719 12.433594 24.136719 12.289062 24.0625 C 12.289062 23.980469 12.289062 23.894531 12.289062 23.808594 Z M 12.289062 23.808594 "/>
<path style=" stroke:none;fill-rule:nonzero;fill:rgb(63.921571%,55.29412%,81.568629%);fill-opacity:1;" d="M 10.046875 22.59375 C 10.265625 22.636719 10.265625 22.636719 10.496094 22.71875 C 10.574219 22.886719 10.574219 22.886719 10.625 23.039062 C 10.527344 22.976562 10.433594 22.914062 10.335938 22.851562 C 10.28125 22.816406 10.230469 22.78125 10.175781 22.746094 C 10.132812 22.714844 10.089844 22.6875 10.046875 22.65625 C 10.046875 22.636719 10.046875 22.613281 10.046875 22.59375 Z M 10.046875 22.59375 "/>
<path style=" stroke:none;fill-rule:nonzero;fill:rgb(57.647061%,46.27451%,80.784315%);fill-opacity:1;" d="M 23.167969 20.863281 C 23.210938 20.886719 23.253906 20.90625 23.296875 20.929688 C 23.265625 21.164062 23.226562 21.285156 23.039062 21.441406 C 23.039062 21.335938 23.039062 21.230469 23.039062 21.121094 C 23.082031 21.121094 23.125 21.121094 23.167969 21.121094 C 23.167969 21.035156 23.167969 20.949219 23.167969 20.863281 Z M 23.167969 20.863281 "/>
<path style=" stroke:none;fill-rule:nonzero;fill:rgb(67.450982%,58.039218%,83.529413%);fill-opacity:1;" d="M 24.832031 17.535156 C 24.933594 17.792969 24.851562 17.988281 24.769531 18.238281 C 24.746094 18.238281 24.726562 18.238281 24.703125 18.238281 C 24.6875 17.753906 24.6875 17.753906 24.832031 17.535156 Z M 24.832031 17.535156 "/>
<path style=" stroke:none;fill-rule:nonzero;fill:rgb(67.058825%,58.823532%,83.529413%);fill-opacity:1;" d="M 9.535156 22.144531 C 9.777344 22.179688 9.886719 22.285156 10.046875 22.464844 C 10.027344 22.507812 10.003906 22.546875 9.984375 22.59375 C 9.921875 22.550781 9.855469 22.507812 9.792969 22.464844 C 9.792969 22.421875 9.792969 22.378906 9.792969 22.335938 C 9.75 22.335938 9.707031 22.335938 9.664062 22.335938 C 9.664062 22.292969 9.664062 22.25 9.664062 22.207031 C 9.621094 22.1875 9.578125 22.164062 9.535156 22.144531 Z M 9.535156 22.144531 "/>
<path style=" stroke:none;fill-rule:nonzero;fill:rgb(55.29412%,44.313726%,77.254903%);fill-opacity:1;" d="M 17.152344 14.398438 C 17.214844 14.421875 17.277344 14.441406 17.34375 14.464844 C 17.34375 14.507812 17.34375 14.546875 17.34375 14.59375 C 17.171875 14.679688 17.023438 14.660156 16.832031 14.65625 C 16.894531 14.636719 16.957031 14.613281 17.023438 14.59375 C 17.023438 14.550781 17.023438 14.507812 17.023438 14.464844 C 17.066406 14.441406 17.109375 14.421875 17.152344 14.398438 Z M 17.152344 14.398438 "/>
<path style=" stroke:none;fill-rule:nonzero;fill:rgb(68.627453%,61.176473%,84.705883%);fill-opacity:1;" d="M 19.839844 7.550781 C 20.082031 7.621094 20.253906 7.675781 20.414062 7.871094 C 20.332031 7.871094 20.246094 7.871094 20.160156 7.871094 C 20.160156 7.828125 20.160156 7.789062 20.160156 7.742188 C 20.054688 7.722656 19.949219 7.703125 19.839844 7.679688 C 19.839844 7.636719 19.839844 7.59375 19.839844 7.550781 Z M 19.839844 7.550781 "/>
<path style=" stroke:none;fill-rule:nonzero;fill:rgb(47.450981%,36.470589%,70.980394%);fill-opacity:1;" d="M 11.519531 18.625 C 11.542969 18.625 11.5625 18.625 11.585938 18.625 C 11.585938 18.855469 11.585938 19.089844 11.585938 19.328125 C 11.414062 18.988281 11.414062 18.988281 11.390625 18.816406 C 11.433594 18.753906 11.476562 18.6875 11.519531 18.625 Z M 11.519531 18.625 "/>
<path style=" stroke:none;fill-rule:nonzero;fill:rgb(65.882355%,57.254905%,84.705883%);fill-opacity:1;" d="M 20.671875 17.921875 C 20.734375 17.960938 20.796875 18.003906 20.863281 18.046875 C 20.6875 18.359375 20.6875 18.359375 20.542969 18.433594 C 20.585938 18.261719 20.628906 18.09375 20.671875 17.921875 Z M 20.671875 17.921875 "/>
<path style=" stroke:none;fill-rule:nonzero;fill:rgb(48.627451%,36.470589%,74.901962%);fill-opacity:1;" d="M 24.832031 17.023438 C 24.851562 17.023438 24.875 17.023438 24.894531 17.023438 C 24.914062 17.410156 24.914062 17.410156 24.894531 17.535156 C 24.832031 17.578125 24.769531 17.621094 24.703125 17.664062 C 24.703125 17.539062 24.703125 17.410156 24.703125 17.28125 C 24.746094 17.28125 24.789062 17.28125 24.832031 17.28125 C 24.832031 17.195312 24.832031 17.109375 24.832031 17.023438 Z M 24.832031 17.023438 "/>
<path style=" stroke:none;fill-rule:nonzero;fill:rgb(61.56863%,53.333336%,80.000001%);fill-opacity:1;" d="M 16.574219 16 C 16.789062 16 17 16 17.214844 16 C 17.214844 16.042969 17.214844 16.085938 17.214844 16.128906 C 16.957031 16.203125 16.816406 16.179688 16.574219 16.0625 C 16.574219 16.042969 16.574219 16.023438 16.574219 16 Z M 16.574219 16 "/>
<path style=" stroke:none;fill-rule:nonzero;fill:rgb(56.862748%,45.882353%,76.862746%);fill-opacity:1;" d="M 17.921875 13.886719 C 17.808594 14.199219 17.808594 14.199219 17.664062 14.273438 C 17.644531 14.167969 17.621094 14.0625 17.601562 13.953125 C 17.726562 13.886719 17.726562 13.886719 17.921875 13.886719 Z M 17.921875 13.886719 "/>
</g>
</svg>
